HIERARCHY
ROOT hip
{
	OFFSET 0.000000 0.000000 0.000000 
	CHANNELS 6 Xposition Yposition Zposition Xrotation Zrotation Yrotation
	JOINT abdomen
	{
		OFFSET 0.000000 3.402643 0.000000 
		CHANNELS 3 Xrotation Zrotation Yrotation
		JOINT chest
		{
			OFFSET 0.000000 8.438565 -0.680529 
			CHANNELS 3 Xrotation Zrotation Yrotation
			JOINT neck
			{
				OFFSET 0.000000 10.207942 -0.272212 
				CHANNELS 3 Xrotation Zrotation Yrotation
				JOINT head
				{
					OFFSET 0.000000 3.130431 0.000000 
					CHANNELS 3 Xrotation Zrotation Yrotation
					End Site
					{
						OFFSET 0.000000 3.130435 0.000000 
					}
				}
			}
			JOINT lCollar
			{
				OFFSET 3.470700 6.669187 -0.816635 
				CHANNELS 3 Yrotation Zrotation Xrotation
				JOINT lShldr
				{
					OFFSET 3.198488 0.000000 0.000000 
					CHANNELS 3 Zrotation Yrotation Xrotation
					JOINT lForeArm
					{
						OFFSET 10.139888 0.000000 0.000000 
						CHANNELS 3 Yrotation Zrotation Xrotation
						JOINT lHand
						{
							OFFSET 8.370511 0.000000 0.000000 
							CHANNELS 3 Zrotation Yrotation Xrotation
							End Site
							{
								OFFSET 4.083176 0.000000 0.000000 
							}
						}
					}
				}
			}
			JOINT rCollar
			{
				OFFSET -3.470700 6.669187 -0.816635 
				CHANNELS 3 Yrotation Zrotation Xrotation
				JOINT rShldr
				{
					OFFSET -3.198488 0.000000 0.000000 
					CHANNELS 3 Zrotation Yrotation Xrotation
					JOINT rForeArm
					{
						OFFSET -10.139888 0.000000 0.000000 
						CHANNELS 3 Yrotation Zrotation Xrotation
						JOINT rHand
						{
							OFFSET -8.370511 0.000000 0.000000 
							CHANNELS 3 Zrotation Yrotation Xrotation
							End Site
							{
								OFFSET -4.083176 0.000000 0.000000 
							}
						}
					}
				}
			}
		}
	}
	JOINT lThigh
	{
		OFFSET 5.308129 -1.633274 1.361059 
		CHANNELS 3 Xrotation Zrotation Yrotation
		JOINT lShin
		{
			OFFSET -2.041588 -20.007561 0.000000 
			CHANNELS 3 Xrotation Zrotation Yrotation
			JOINT lFoot
			{
				OFFSET 0.000000 -19.190928 -1.224953 
				CHANNELS 3 Xrotation Yrotation Zrotation
				End Site
				{
					OFFSET 0.000000 -2.449906 4.627600 
				}
			}
		}
	}
	JOINT rThigh
	{
		OFFSET -5.308129 -1.633274 1.361059 
		CHANNELS 3 Xrotation Zrotation Yrotation
		JOINT rShin
		{
			OFFSET 2.041588 -20.007561 0.000000 
			CHANNELS 3 Xrotation Zrotation Yrotation
			JOINT rFoot
			{
				OFFSET 0.000000 -19.190928 -1.224953 
				CHANNELS 3 Xrotation Yrotation Zrotation
				End Site
				{
					OFFSET 0.000000 -2.449906 4.627600 
				}
			}
		}
	}
}
MOTION
Frames: 13
Frame Time: 0.016667
-0.526585 43.504181 0.475210 3.082860 -3.773840 0.519350 -22.710199 3.468700 1.162120 17.606600 1.375130 1.081510 38.324799 0.480738 11.354300 -8.603520 0.000000 0.000000 2.000000 -2.000000 0.000000 -83.707100 6.398610 -138.828995 87.031799 -0.221929 0.136579 5.569340 0.212282 -152.212006 -2.000000 2.000000 0.000000 76.459198 -3.450890 -137.985001 -92.568802 0.209159 0.117072 4.971370 4.515200 -156.576004 -14.357720 0.729019 -0.993625 33.875359 2.595554 2.511874 -17.134741 7.193414 2.496251 -15.459836 10.244766 4.053655 34.040638 -2.175401 -2.699642 -19.914843 -5.319375 -1.876971 
-0.521948 43.507687 0.470874 3.112260 -3.783490 0.468064 -22.729700 3.468330 1.161230 17.567499 1.375080 1.090330 38.084202 0.574050 11.404900 -8.603520 0.000000 0.000000 2.000000 -2.000000 0.000000 -83.619003 6.398770 -138.740997 87.149002 -0.221650 0.136593 5.567790 0.230022 -152.417007 -2.000000 2.000000 0.000000 76.478798 -3.597310 -138.024002 -92.637100 0.209008 0.117065 4.964490 4.528850 -156.712997 -14.391068 0.719767 -1.039468 33.865696 2.587696 2.500099 -17.121958 7.277405 2.520838 -15.492737 10.250341 4.067765 34.030674 -2.171663 -2.689168 -19.892872 -5.289048 -1.857894 
-0.518466 43.511448 0.467033 3.161230 -3.793060 0.405710 -22.768999 3.480010 1.164820 17.518600 1.384770 1.088640 37.967602 0.605415 11.411700 -8.603520 0.000000 0.000000 2.000000 -2.000000 0.000000 -83.657997 6.467210 -138.692993 87.178299 -0.221580 0.136597 5.562020 0.238946 -152.533997 -2.000000 2.000000 0.000000 76.508102 -3.734040 -138.014999 -92.666397 0.208943 0.117062 4.945450 4.543490 -156.878998 -14.410123 0.729489 -1.038824 33.826786 2.584089 2.499735 -17.075066 7.338000 2.540013 -15.537766 10.256773 4.097830 34.020737 -2.181535 -2.701926 -19.882507 -5.249247 -1.843961 
-0.514544 43.514557 0.464400 3.200410 -3.802670 0.353754 -22.808599 3.497260 1.155470 17.469801 1.394460 1.086940 38.016602 0.598914 11.387600 -8.603520 0.000000 0.000000 2.000000 -2.000000 0.000000 -83.785004 6.545390 -138.662994 87.129402 -0.221696 0.136591 5.566410 0.247671 -152.554001 -2.000000 2.000000 0.000000 76.517799 -3.870800 -137.994995 -92.685997 0.208900 0.117060 4.936110 4.558120 -157.046005 -14.438955 0.738485 -1.037494 33.817081 2.582731 2.499492 -17.050436 7.399665 2.550058 -15.570226 10.262367 4.102362 33.981396 -2.178419 -2.692150 -19.848864 -5.228267 -1.818768 
-0.511116 43.516895 0.462577 3.239600 -3.812280 0.292018 -22.838100 3.509120 1.159480 17.430700 1.413910 1.084920 38.145000 0.616420 11.370500 -8.603520 0.000000 0.000000 2.000000 -2.000000 0.000000 -83.911903 6.594240 -138.654007 87.051300 -0.221882 0.136581 5.566450 0.247649 -152.544006 -2.000000 2.000000 0.000000 76.527603 -3.968470 -137.985992 -92.666397 0.208943 0.117062 4.920840 4.571080 -157.162994 -14.463896 0.751786 -0.988036 33.787647 2.583834 2.500310 -17.037775 7.404000 2.551880 -15.609304 10.277349 4.133509 33.971333 -2.183712 -2.693849 -19.846260 -5.196783 -1.811297 
-0.508810 43.518581 0.461476 3.278750 -3.812130 0.221062 -22.867901 3.526540 1.150550 17.411100 1.433390 1.083370 38.302299 0.618661 11.366500 -8.603520 0.000000 0.000000 2.000000 -2.000000 0.000000 -83.980301 6.623500 -138.673004 86.992699 -0.222022 0.136574 5.566490 0.247628 -152.533997 -2.000000 2.000000 0.000000 76.537399 -4.036830 -137.985992 -92.637100 0.209008 0.117065 4.916160 4.573060 -157.220993 -14.497153 0.763946 -0.918416 33.769348 2.570442 2.506458 -17.056046 7.360216 2.539873 -15.625096 10.275673 4.197912 33.932056 -2.179486 -2.683790 -19.832993 -5.174991 -1.785847 
-0.506907 43.519505 0.461071 3.298280 -3.802300 0.151965 -22.877899 3.535350 1.146310 17.401300 1.443120 1.082590 38.430302 0.622397 11.371600 -8.603520 0.000000 0.000000 2.000000 -2.000000 0.000000 -84.029198 6.633180 -138.722000 86.943901 -0.222138 0.136568 5.562060 0.238925 -152.524994 -2.000000 2.000000 0.000000 76.556900 -4.066130 -137.985992 -92.598099 0.209094 0.117069 4.914600 4.573720 -157.240997 -14.492202 0.774850 -0.861069 33.768951 2.576444 2.508322 -17.076506 7.338619 2.529236 -15.636295 10.278399 4.225173 33.922531 -2.174946 -2.682651 -19.822935 -5.129525 -1.780666 
-0.505321 43.519505 0.461155 3.298280 -3.802300 0.083605 -22.878201 3.544350 1.142520 17.401300 1.452870 1.082050 38.528599 0.605270 11.382700 -8.603520 0.000000 0.000000 2.000000 -2.000000 0.000000 -84.078201 6.652570 -138.800003 86.914597 -0.222208 0.136564 5.562020 0.238946 -152.533997 -2.000000 2.000000 0.000000 76.566704 -4.085620 -138.005997 -92.558998 0.209181 0.117073 4.916160 4.573060 -157.220993 -14.481842 0.772244 -0.851724 33.758873 2.574876 2.498315 -17.084803 7.386886 2.568327 -15.632089 10.286087 4.255352 33.921551 -2.185571 -2.676044 -19.811859 -5.095380 -1.759883 
-0.504831 43.518581 0.460432 3.288500 -3.802340 0.015894 -22.868700 3.550110 1.130040 17.411100 1.462640 1.081760 38.614601 0.565214 11.372200 -8.603520 0.000000 0.000000 2.000000 -2.000000 0.000000 -84.097801 6.671980 -138.869003 86.934097 -0.222162 0.136567 5.566370 0.247693 -152.563995 -2.000000 2.000000 0.000000 76.586304 -4.085590 -138.024994 -92.549301 0.209202 0.117074 4.916940 4.572730 -157.212006 -14.405398 0.770565 -0.876264 33.661221 2.571321 2.498996 -17.034634 7.480354 2.594974 -15.637623 10.298209 4.300972 33.942074 -2.175080 -2.682336 -19.817772 -5.073056 -1.747304 
-0.505583 43.518066 0.458244 3.278670 -3.792630 -0.061026 -22.849400 3.559500 1.127180 17.430599 1.462670 1.072500 38.641998 0.510250 11.357700 -8.603520 0.000000 0.000000 2.000000 -2.000000 0.000000 -84.078300 6.681650 -138.917999 86.992699 -0.222022 0.136574 5.566150 0.247801 -152.613007 -2.000000 2.000000 0.000000 76.605797 -4.075790 -138.044998 -92.549301 0.209202 0.117074 4.918500 4.572070 -157.192001 -14.435493 0.753165 -0.873145 33.758884 2.574658 2.498265 -17.051968 7.569371 2.613588 -15.631875 10.291861 4.351496 33.942543 -2.173798 -2.691557 -19.811796 -5.061359 -1.728483 
-0.507579 43.516640 0.455247 3.268850 -3.782920 -0.128183 -22.829599 3.547460 1.122740 17.440399 1.472430 1.072220 38.609600 0.458528 11.345900 -8.603520 0.000000 0.000000 2.000000 -2.000000 0.000000 -84.010002 6.681640 -138.927002 87.080597 -0.221813 0.136585 5.570530 0.256534 -152.632004 -2.000000 2.000000 0.000000 76.615601 -4.056260 -138.044998 -92.578598 0.209137 0.117071 4.920060 4.571410 -157.173004 -14.424191 0.739311 -0.843808 33.768246 2.581170 2.499938 -17.027306 7.629392 2.622630 -15.621677 10.291988 4.401393 33.962563 -2.172446 -2.700495 -19.800600 -5.023347 -1.716597 
-0.511420 43.514557 0.451732 3.258990 -3.763450 -0.194790 -22.819799 3.547650 1.123200 17.450100 1.472440 1.072470 38.559502 0.434202 11.339300 -8.603520 0.000000 0.000000 2.000000 -2.000000 0.000000 -83.961197 6.681650 -138.917999 87.158699 -0.221626 0.136594 5.570440 0.256578 -152.651993 -2.000000 2.000000 0.000000 76.615501 -4.036760 -138.024994 -92.627403 0.209029 0.117066 4.921620 4.570750 -157.153000 -14.400184 0.741432 -0.787017 33.748650 2.581423 2.500339 -17.025736 7.632708 2.624574 -15.642013 10.299403 4.436369 34.001808 -2.170176 -2.698950 -19.791912 -5.018035 -1.712873 
-0.515351 43.512615 0.448015 3.249170 -3.753740 -0.271721 -22.810101 3.547840 1.123660 17.450100 1.482190 1.071940 38.540100 0.435711 11.339000 -8.603520 0.000000 0.000000 2.000000 -2.000000 0.000000 -83.912300 6.671920 -138.897995 87.227097 -0.221463 0.136602 5.570310 0.256645 -152.681000 -2.000000 2.000000 0.000000 76.596001 -4.017280 -137.996002 -92.676201 0.208921 0.117061 4.921620 4.570750 -157.153000 -14.383724 0.758540 -0.711230 33.747963 2.585850 2.491859 -17.033434 7.608810 2.634166 -15.655113 10.299449 4.462033 34.030754 -2.170120 -2.688677 -19.779110 -4.993699 -1.686825 
